<?xml version="1.0" encoding="utf-8"?>
<!-- Generator: Adobe Illustrator 24.3.0, SVG Export Plug-In . SVG Version: 6.00 Build 0)  -->
<svg version="1.1" id="Calque_1" xmlns="http://www.w3.org/2000/svg" xmlns:xlink="http://www.w3.org/1999/xlink" x="0px" y="0px"
	 viewBox="0 0 565.1 490.5" style="enable-background:new 0 0 565.1 490.5;" xml:space="preserve">
<style type="text/css">
	.st0{fill:#F3F3F3;}
	.st1{fill:#36D64C;}
</style>
<rect class="st0" width="565.1" height="490.5"/>
<g>
	<g>
		<path class="st1" d="M282.5,258.6c-0.8,0-1.6-0.2-2.4-0.5l-121.4-54.3c-2.3-1-3.7-3.4-3.7-6c0.1-2.6,1.6-4.9,3.9-5.8l121.4-48.3
			c0.7-0.3,1.4-0.4,2.2-0.4c0.7,0,1.5,0.1,2.2,0.4l121.4,48.3c2.3,0.9,3.9,3.2,3.9,5.8c0.1,2.6-1.4,5-3.7,6l-121.4,54.4
			C284.2,258.4,283.4,258.6,282.5,258.6L282.5,258.6z M177.4,198.2l104.9,46.9l105.5-46.9l-105.2-41.8L177.4,198.2z"/>
		<path class="st1" d="M158.7,249.4c-3.1-1.4-4.5-5.1-3.2-8.4c1-2.3,3.2-3.9,5.6-3.9c0.8,0,1.6,0.2,2.4,0.5l118.7,53.1l119.3-53.1
			c0.8-0.4,1.6-0.5,2.4-0.5c2.4,0,4.6,1.5,5.6,3.9c1.3,3.2-0.1,7-3.2,8.4l-123.8,55.4L158.7,249.4z"/>
		<path class="st1" d="M158.7,291.8c-3.1-1.4-4.5-5.1-3.2-8.3c1-2.3,3.2-3.9,5.6-3.9c0.8,0,1.6,0.2,2.4,0.5l118.7,53.1l119.3-53.1
			c0.8-0.3,1.6-0.5,2.4-0.5c2.4,0,4.6,1.5,5.6,3.9c1.3,3.2-0.1,7-3.2,8.3l-123.8,55.4L158.7,291.8z"/>
	</g>
</g>
</svg>
