<?xml version="1.0" encoding="utf-8"?>
<!-- Generator: Adobe Illustrator 24.3.0, SVG Export Plug-In . SVG Version: 6.00 Build 0)  -->
<svg version="1.1" id="Calque_1" xmlns="http://www.w3.org/2000/svg" xmlns:xlink="http://www.w3.org/1999/xlink" x="0px" y="0px"
	 viewBox="0 0 565.1 490.5" style="enable-background:new 0 0 565.1 490.5;" xml:space="preserve">
<style type="text/css">
	.st0{fill:#F3F3F3;}
	.st1{fill:#36D64C;}
</style>
<rect class="st0" width="565.1" height="490.5"/>
<g>
	<path class="st1" d="M395.3,171.2c-7.4,0-13.5,6-13.5,13.5c0,7.4,6,13.5,13.5,13.5c7.4,0,13.5-6,13.5-13.5c0,0,0,0,0,0
		C408.8,177.2,402.8,171.2,395.3,171.2z M395.3,190.8c-3.4,0-6.2-2.8-6.2-6.2c0-3.4,2.8-6.2,6.2-6.2c3.4,0,6.2,2.8,6.2,6.2
		c0,0,0,0,0,0C401.5,188.1,398.7,190.8,395.3,190.8L395.3,190.8z"/>
	<path class="st1" d="M238.7,138.2c8.8,0,15.9-7.1,15.9-15.9c0-8.8-7.1-15.9-15.9-15.9c-8.8,0-15.9,7.1-15.9,15.9c0,0,0,0,0,0
		C222.8,131,229.9,138.1,238.7,138.2z M238.7,113.7c4.7,0,8.6,3.8,8.6,8.6s-3.8,8.6-8.6,8.6s-8.6-3.8-8.6-8.6c0,0,0,0,0,0
		C230.1,117.5,233.9,113.7,238.7,113.7z"/>
	<path class="st1" d="M300,230.4c0-8.8-7.1-15.9-15.9-15.9s-15.9,7.1-15.9,15.9c0,8.8,7.1,15.9,15.9,15.9
		C292.9,246.3,300,239.2,300,230.4z M284.2,239c-4.7,0-8.6-3.8-8.6-8.6c0-4.7,3.8-8.6,8.6-8.6c4.7,0,8.6,3.8,8.6,8.6c0,0,0,0,0,0
		C292.7,235.2,288.9,239,284.2,239L284.2,239z"/>
	<path class="st1" d="M179.4,187.8c8.8,0,15.9-7.1,15.9-15.9c0-8.8-7.1-15.9-15.9-15.9c-8.8,0-15.9,7.1-15.9,15.9c0,0,0,0,0,0
		C163.5,180.6,170.6,187.7,179.4,187.8z M179.4,163.3c4.7,0,8.6,3.8,8.6,8.6c0,4.7-3.8,8.6-8.6,8.6c-4.7,0-8.6-3.8-8.6-8.6
		c0,0,0,0,0,0C170.8,167.2,174.6,163.3,179.4,163.3z"/>
	<path class="st1" d="M418.4,183.8c-0.8-12.1-10.6-21.5-22.4-21.5c-5.5,0-10.7,2-14.8,5.7c-12-11.7-26.9-21.8-43.5-29.3
		c-18.8-8.5-38.3-13-56.4-13c-5,0-10,0.4-15,0.9c0.2-1.8,0.3-3.6,0.2-5.4c-0.9-14.5-12.8-25.9-27-25.9c-14.2,0-26.1,11.4-27,25.9
		c-0.3,6.7,1.7,13.2,5.7,18.5l0.8,1c-6.7,3.8-13.1,8-19.3,12.6c-5-5.4-12.1-8.4-19.4-8.4c-14.2,0-26.1,11.4-27,25.9
		c-0.3,6.7,1.7,13.2,5.7,18.5l4.4,5.8c-10.3,19.9-16.5,44-16.5,65.2c-0.2,74.3,60,134.7,134.3,134.9s134.7-60,134.9-134.3
		c0-0.2,0-0.4,0-0.6c0-15-3.8-37.5-8.8-52.3l6.7-8.9C417,194.7,418.7,189.3,418.4,183.8z M219.7,121.7c0.6-9.4,8.2-19.1,19.7-19.1
		c11.6,0,19.1,9.7,19.7,19.1c0.3,4.9-1.2,9.8-4.2,13.7l-15.5,20.7L224,135.4C221,131.5,219.5,126.6,219.7,121.7z M160.4,171.3
		c0.6-9.4,8.2-19.1,19.7-19.1c11.6,0,19.1,9.7,19.7,19.1c0.3,4.9-1.2,9.8-4.2,13.7l-15.5,20.7L164.7,185
		C161.7,181.1,160.2,176.2,160.4,171.3z M168,201.7l9.2,12.3c1.2,1.6,3.5,1.9,5.1,0.7c0.3-0.2,0.5-0.5,0.7-0.7l18.4-24.6
		c6.7-8.7,7.6-20.5,2.3-30.1c6.2-4.6,12.7-8.8,19.4-12.6l13.3,17.7c1.2,1.6,3.5,1.9,5.1,0.7c0.3-0.2,0.5-0.5,0.7-0.7l18.4-24.6
		c1.3-1.7,2.4-3.6,3.3-5.5c1.5-0.2,3-0.4,4.5-0.5l15.4,22.2c3.7,5.2,3.5,12.3-0.4,17.3l-4.3,5.6c-2.2,2.8-5.6,4.2-9.1,3.8l-4.9-0.6
		c-7.1-0.9-14,2.5-17.6,8.7c-2,3.5-5.9,5.4-9.9,4.9l-11.4-1.4c-6.9-0.9-13.8,2.2-17.7,8c-3.7,5.4-3.8,12.4-0.3,18l7.5,11.9
		c2.8,4.4,7.7,7.1,12.9,7.1c2.5,0,5-0.6,7.2-1.8l7.7-4.1c3.8-2,9.9-2,14.4-0.2c0.4,5.5,2.4,10.7,5.7,15.1l18.4,24.7
		c1.2,1.6,3.5,1.9,5.1,0.7c0.3-0.2,0.5-0.5,0.7-0.7l9.3-12.5l1.2,1.6c0.5,0.7,1,1.4,1.6,2.1l9.4,11.1c1.7,2,1.5,5-0.5,6.7
		c-0.1,0-0.1,0.1-0.2,0.1l-14.2,10.9c-3.8,2.9-6.6,6.9-8,11.5l-4.7,15.4c-0.4,1.2-1,2.3-1.8,3.3l-4.6,5.6c-3.4,4.1-5.6,9.2-6.1,14.5
		c-0.3,2.6-2,4.9-4.4,6c-1.8,0.8-4-0.1-4.7-1.9c-0.1-0.3-0.2-0.5-0.2-0.8l-4.3-26.1c-0.5-3.2-1.9-6.3-3.9-8.9l-15.9-20.9
		c-1.4-1.9-2.5-4-3.1-6.3l-5.3-19c-1.9-6.8-7.2-12-13.9-13.9l-1.1-0.3c-2.3-0.6-4.4-1.8-6.2-3.5l-9.8-9.2c-1.6-1.5-2.9-3.2-4-5
		c-4.7-8.1-13.9-12.3-23.1-10.5c-0.1,0-0.3,0.1-0.4,0.1l-9.8,3.2C161.3,217.5,164.3,209.5,168,201.7z M265.2,229.8
		c0.6-9.4,8.2-19.1,19.7-19.1s19.1,9.7,19.7,19.1c0.3,4.9-1.2,9.8-4.2,13.7l-15.5,20.7l-15.5-20.7
		C266.5,239.6,265,234.8,265.2,229.8L265.2,229.8z M408.5,260.4c0,70.2-57.1,127.4-127.3,127.4S154,330.6,154,260.4
		c0.1-8.8,1-17.6,2.9-26.2l13.9-4.5c6-1.1,12.1,1.7,15.1,7c1.4,2.5,3.2,4.7,5.3,6.7l9.8,9.2c2.6,2.5,5.8,4.2,9.3,5.2l1.1,0.3
		c4.3,1.2,7.6,4.5,8.8,8.8l5.3,19c0.9,3.2,2.4,6.1,4.3,8.8l15.9,20.9c1.3,1.7,2.1,3.6,2.5,5.7l4.3,26.1c1,6,6.6,10,12.5,9
		c0.8-0.1,1.7-0.4,2.5-0.7c4.9-2.1,8.3-6.6,8.9-12c0.4-3.9,2-7.6,4.5-10.6l4.6-5.6c1.4-1.7,2.5-3.7,3.2-5.8l4.7-15.4
		c1-3.1,2.8-5.8,5.4-7.8l14.2-10.9c5.3-4.1,6.3-11.7,2.2-16.9c-0.1-0.2-0.2-0.3-0.4-0.5l-9.4-11.1c-0.4-0.5-0.8-1-1.3-1.6l-2.5-3.5
		l4.5-6c4-5.3,6.1-11.9,5.7-18.5c-0.9-14.5-12.8-25.9-27-25.9c-12.8,0-23.8,9.3-26.4,21.8c-6.1-1.8-13.3-1.4-18.4,1.3l-7.7,4.1
		c-3.7,1.9-8.2,0.8-10.4-2.7l-7.5-11.9c-1.9-3.1-1.9-7,0.2-9.9c2.4-3.5,6.5-5.4,10.7-4.8l11.4,1.4c6.9,0.9,13.6-2.4,17.2-8.4
		c2.1-3.6,6.2-5.7,10.4-5.1l4.9,0.6c6.1,0.8,12.1-1.7,15.8-6.6l4.3-5.6c5.9-7.6,6.1-18.1,0.7-25.9l-12.9-18.6
		c1.5-0.1,2.9-0.1,4.2-0.1c17.1,0,35.6,4.3,53.4,12.3c5.6,2.5,11,5.4,16.3,8.6l-9.8,16.8c-2.9,5.1-2.2,11.4,1.6,15.8
		c2.8,3.2,6.7,5.3,11,5.8l1.8,0.2c3.5,0.4,6.5,2.9,7.5,6.3c1,3.2,0,6.7-2.5,9l-17.6,15.6c-3.6,3.2-5.7,7.8-5.7,12.6v4.1
		c0,5,2.5,9.6,6.7,12.3c2.1,1.3,3.4,3.5,3.7,6l0.4,4.1c0.7,6.9,6.5,12.2,13.5,12.2h10.3c8.7,0,16.6-5.2,20.2-13.2l0.6-1.4
		c1.2-2.9,4-4.8,7.1-4.9l2.4-0.1c0.4,0,0.8,0,1.2-0.1l5.1-0.5C408.4,256.7,408.5,258.6,408.5,260.4L408.5,260.4z M407.7,247.4
		l-5.3,0.5c-0.3,0-0.5,0-0.8,0.1l-2.4,0.1c-5.9,0.2-11.1,3.8-13.5,9.3l-0.6,1.4c-2.3,5.3-7.6,8.8-13.5,8.8h-10.3
		c-3.2,0-5.9-2.4-6.2-5.6l-0.4-4.1c-0.5-4.7-3-8.9-7-11.4c-2.1-1.4-3.4-3.7-3.4-6.2v-4.1c0-2.7,1.2-5.3,3.2-7.1l17.6-15.6
		c4.7-4.1,6.5-10.6,4.7-16.6c-1.9-6.2-7.2-10.7-13.6-11.4l-1.8-0.2c-2.5-0.3-4.7-1.5-6.4-3.4c-1.8-2-2.1-5-0.8-7.3l9.7-16.5
		c7,4.7,13.5,9.9,19.5,15.8c-1.8,3.1-2.8,6.6-3.1,10.1c-0.3,5.5,1.4,11,4.7,15.4l14.8,19.8c1.2,1.6,3.5,1.9,5.1,0.7
		c0.3-0.2,0.5-0.5,0.7-0.7l2.7-3.6C404.5,225.8,406.6,236.5,407.7,247.4z M407.8,194.7l-11.9,15.9l-11.9-15.9
		c-2.3-3-3.5-6.8-3.3-10.6c0.5-7.2,6.3-14.7,15.1-14.7c8.9,0,14.7,7.5,15.1,14.7C411.3,188,410.1,191.7,407.8,194.7L407.8,194.7z"/>
</g>
</svg>
