<?xml version="1.0" encoding="UTF-8"?>
<svg xmlns="http://www.w3.org/2000/svg" xmlns:xlink="http://www.w3.org/1999/xlink" width="270px" height="200px" viewBox="0 0 270 200" version="1.1">
<g id="surface1">
<path style=" stroke:none;fill-rule:nonzero;fill:rgb(95.294118%,95.294118%,95.294118%);fill-opacity:1;" d="M 0 0.121094 L 270 0.121094 L 270 199.878906 L 0 199.878906 Z M 0 0.121094 "/>
<path style=" stroke:none;fill-rule:nonzero;fill:rgb(21.176471%,83.921569%,29.803922%);fill-opacity:1;" d="M 146.253906 85.601562 L 195.847656 93.992188 C 199.8125 94.726562 202.535156 97.578125 202.535156 100.996094 L 202.535156 149.949219 C 202.535156 153.902344 198.761719 157.160156 194.078125 157.160156 L 143.433594 157.160156 C 145.007812 157.160156 146.253906 156.101562 146.253906 154.757812 L 146.253906 152.351562 L 194.078125 152.351562 C 195.609375 152.351562 196.898438 151.292969 196.898438 149.949219 L 196.898438 100.996094 C 196.898438 99.898438 195.988281 98.921875 194.699219 98.636719 L 146.253906 90.492188 Z M 146.253906 85.601562 "/>
<path style=" stroke:none;fill-rule:nonzero;fill:rgb(21.176471%,83.921569%,29.803922%);fill-opacity:1;" d="M 177.210938 109.144531 C 178.789062 109.144531 180.03125 110.203125 180.03125 111.546875 C 180.03125 112.929688 178.789062 113.949219 177.210938 113.949219 L 165.984375 113.949219 C 164.40625 113.949219 163.164062 112.890625 163.164062 111.546875 C 163.164062 110.160156 164.40625 109.144531 165.984375 109.144531 Z M 177.210938 109.144531 "/>
<path style=" stroke:none;fill-rule:nonzero;fill:rgb(21.176471%,83.921569%,29.803922%);fill-opacity:1;" d="M 177.210938 123.519531 C 178.789062 123.519531 180.03125 124.578125 180.03125 125.921875 C 180.03125 127.265625 178.789062 128.324219 177.210938 128.324219 L 165.984375 128.324219 C 164.40625 128.324219 163.164062 127.265625 163.164062 125.921875 C 163.164062 124.578125 164.40625 123.519531 165.984375 123.519531 Z M 177.210938 123.519531 "/>
<path style=" stroke:none;fill-rule:nonzero;fill:rgb(21.176471%,83.921569%,29.803922%);fill-opacity:1;" d="M 177.210938 137.9375 C 178.789062 137.9375 180.03125 138.996094 180.03125 140.339844 C 180.03125 141.683594 178.789062 142.742188 177.210938 142.742188 L 165.984375 142.742188 C 164.40625 142.742188 163.164062 141.683594 163.164062 140.339844 C 163.164062 138.996094 164.40625 137.9375 165.984375 137.9375 Z M 177.210938 137.9375 "/>
<path style=" stroke:none;fill-rule:nonzero;fill:rgb(21.176471%,83.921569%,29.803922%);fill-opacity:1;" d="M 146.253906 154.757812 C 146.253906 156.101562 145.007812 157.160156 143.433594 157.160156 C 141.808594 157.160156 140.613281 156.101562 140.613281 154.757812 L 140.613281 87.558594 C 140.613281 86.824219 141.042969 86.171875 141.617188 85.683594 C 142.285156 85.238281 143.144531 85.03125 143.957031 85.195312 L 146.203125 85.5625 L 146.203125 154.714844 L 146.253906 154.714844 Z M 146.253906 154.757812 "/>
<path style=" stroke:none;fill-rule:nonzero;fill:rgb(21.176471%,83.921569%,29.803922%);fill-opacity:1;" d="M 140.613281 152.351562 L 140.613281 154.757812 C 140.613281 156.101562 141.855469 157.160156 143.433594 157.160156 L 120.929688 157.160156 C 122.503906 157.160156 123.746094 156.101562 123.746094 154.757812 L 123.746094 152.351562 Z M 140.613281 152.351562 "/>
<path style=" stroke:none;fill-rule:nonzero;fill:rgb(21.176471%,83.921569%,29.803922%);fill-opacity:1;" d="M 126.566406 65.972656 C 128.144531 65.972656 129.386719 67.03125 129.386719 68.375 C 129.386719 69.71875 128.144531 70.777344 126.566406 70.777344 L 115.339844 70.777344 C 113.761719 70.777344 112.519531 69.71875 112.519531 68.375 C 112.519531 67.03125 113.761719 65.972656 115.339844 65.972656 Z M 126.566406 65.972656 "/>
<path style=" stroke:none;fill-rule:nonzero;fill:rgb(21.176471%,83.921569%,29.803922%);fill-opacity:1;" d="M 129.339844 82.753906 C 129.339844 84.097656 128.097656 85.15625 126.519531 85.15625 L 115.292969 85.15625 C 113.714844 85.15625 112.472656 84.097656 112.472656 82.753906 C 112.472656 81.410156 113.714844 80.351562 115.292969 80.351562 L 126.519531 80.351562 C 128.097656 80.351562 129.339844 81.410156 129.339844 82.753906 Z M 129.339844 82.753906 "/>
<path style=" stroke:none;fill-rule:nonzero;fill:rgb(21.176471%,83.921569%,29.803922%);fill-opacity:1;" d="M 126.566406 94.765625 C 128.144531 94.765625 129.386719 95.824219 129.386719 97.167969 C 129.386719 98.511719 128.144531 99.574219 126.566406 99.574219 L 115.339844 99.574219 C 113.761719 99.574219 112.519531 98.511719 112.519531 97.167969 C 112.519531 95.824219 113.761719 94.765625 115.339844 94.765625 Z M 126.566406 94.765625 "/>
<path style=" stroke:none;fill-rule:nonzero;fill:rgb(21.176471%,83.921569%,29.803922%);fill-opacity:1;" d="M 126.566406 109.144531 C 128.144531 109.144531 129.386719 110.203125 129.386719 111.546875 C 129.386719 112.929688 128.144531 113.949219 126.566406 113.949219 L 115.339844 113.949219 C 113.761719 113.949219 112.519531 112.890625 112.519531 111.546875 C 112.519531 110.160156 113.761719 109.144531 115.339844 109.144531 Z M 126.566406 109.144531 "/>
<path style=" stroke:none;fill-rule:nonzero;fill:rgb(21.176471%,83.921569%,29.803922%);fill-opacity:1;" d="M 101.195312 111.546875 C 101.195312 112.890625 99.953125 113.949219 98.378906 113.949219 L 87.148438 113.949219 C 85.574219 113.949219 84.332031 112.890625 84.332031 111.546875 C 84.332031 110.160156 85.574219 109.144531 87.148438 109.144531 L 98.378906 109.144531 C 100 109.144531 101.195312 110.203125 101.195312 111.546875 Z M 101.195312 111.546875 "/>
<path style=" stroke:none;fill-rule:nonzero;fill:rgb(21.176471%,83.921569%,29.803922%);fill-opacity:1;" d="M 98.378906 65.972656 C 99.953125 65.972656 101.195312 67.03125 101.195312 68.375 C 101.195312 69.71875 99.953125 70.777344 98.378906 70.777344 L 87.148438 70.777344 C 85.574219 70.777344 84.332031 69.71875 84.332031 68.375 C 84.332031 67.03125 85.574219 65.972656 87.148438 65.972656 Z M 98.378906 65.972656 "/>
<path style=" stroke:none;fill-rule:nonzero;fill:rgb(21.176471%,83.921569%,29.803922%);fill-opacity:1;" d="M 98.378906 80.351562 C 99.953125 80.351562 101.195312 81.410156 101.195312 82.753906 C 101.195312 84.097656 99.953125 85.15625 98.378906 85.15625 L 87.148438 85.15625 C 85.574219 85.15625 84.332031 84.097656 84.332031 82.753906 C 84.332031 81.410156 85.574219 80.351562 87.148438 80.351562 Z M 98.378906 80.351562 "/>
<path style=" stroke:none;fill-rule:nonzero;fill:rgb(21.176471%,83.921569%,29.803922%);fill-opacity:1;" d="M 98.378906 94.765625 C 99.953125 94.765625 101.195312 95.824219 101.195312 97.167969 C 101.195312 98.511719 99.953125 99.574219 98.378906 99.574219 L 87.148438 99.574219 C 85.574219 99.574219 84.332031 98.511719 84.332031 97.167969 C 84.332031 95.824219 85.574219 94.765625 87.148438 94.765625 Z M 98.378906 94.765625 "/>
<path style=" stroke:none;fill-rule:nonzero;fill:rgb(21.176471%,83.921569%,29.803922%);fill-opacity:1;" d="M 118.109375 130.726562 C 118.109375 129.382812 116.820312 128.324219 115.292969 128.324219 L 98.425781 128.324219 C 96.847656 128.324219 95.605469 129.382812 95.605469 130.726562 L 95.605469 152.3125 L 89.96875 152.3125 L 89.96875 130.726562 C 89.96875 126.777344 93.742188 123.519531 98.425781 123.519531 L 115.292969 123.519531 C 119.925781 123.519531 123.746094 126.738281 123.746094 130.726562 L 123.746094 152.3125 L 118.109375 152.3125 Z M 118.109375 130.726562 "/>
<path style=" stroke:none;fill-rule:nonzero;fill:rgb(21.176471%,83.921569%,29.803922%);fill-opacity:1;" d="M 95.605469 152.351562 L 123.746094 152.351562 L 123.746094 154.757812 C 123.746094 156.101562 122.503906 157.160156 120.929688 157.160156 L 92.789062 157.160156 C 91.210938 157.160156 89.96875 156.101562 89.96875 154.757812 L 89.96875 152.351562 Z M 95.605469 152.351562 "/>
<path style=" stroke:none;fill-rule:nonzero;fill:rgb(21.176471%,83.921569%,29.803922%);fill-opacity:1;" d="M 77.308594 42.921875 L 139.179688 50.90625 C 143.289062 51.476562 146.253906 54.449219 146.253906 58.03125 L 146.253906 85.5625 L 144.007812 85.195312 C 143.144531 85.03125 142.335938 85.277344 141.664062 85.683594 C 141.042969 86.171875 140.660156 86.824219 140.660156 87.558594 L 140.660156 58.074219 C 140.660156 56.851562 139.660156 55.832031 138.320312 55.667969 L 76.351562 47.6875 C 76.160156 47.605469 76.015625 47.605469 75.824219 47.605469 C 75.15625 47.605469 74.535156 47.808594 74.058594 48.175781 C 73.390625 48.664062 73.054688 49.277344 73.054688 49.96875 L 73.054688 149.867188 C 73.054688 151.214844 74.34375 152.273438 75.875 152.273438 L 89.96875 152.273438 L 89.96875 154.675781 C 89.96875 156.019531 91.210938 157.078125 92.789062 157.078125 L 75.921875 157.078125 C 71.285156 157.078125 67.464844 153.859375 67.464844 149.867188 L 67.464844 50.007812 C 67.464844 47.933594 68.5625 45.894531 70.425781 44.550781 C 72.335938 43.167969 74.773438 42.597656 77.308594 42.921875 Z M 77.308594 42.921875 "/>
</g>
</svg>
