<?xml version="1.0" encoding="utf-8"?>
<!-- Generator: Adobe Illustrator 24.3.0, SVG Export Plug-In . SVG Version: 6.00 Build 0)  -->
<svg version="1.1" id="Calque_1" xmlns="http://www.w3.org/2000/svg" xmlns:xlink="http://www.w3.org/1999/xlink" x="0px" y="0px"
	 viewBox="0 0 565.1 490.5" style="enable-background:new 0 0 565.1 490.5;" xml:space="preserve">
<style type="text/css">
	.st0{fill:#F3F3F3;}
	.st1{fill:#36D64C;}
</style>
<rect class="st0" width="565.1" height="490.5"/>
<g>
	<g id="XMLID_2_">
		<path class="st1" d="M306.1,209.9l103.8,20.6c8.3,1.8,14,8.8,14,17.2v120.2c0,9.7-7.9,17.7-17.7,17.7h-106c3.3,0,5.9-2.6,5.9-5.9
			v-5.9h100.1c3.2,0,5.9-2.6,5.9-5.9V247.7c0-2.7-1.9-5.1-4.6-5.8l-101.4-20V209.9z"/>
		<path class="st1" d="M370.9,267.7c3.3,0,5.9,2.6,5.9,5.9c0,3.4-2.6,5.9-5.9,5.9h-23.5c-3.3,0-5.9-2.6-5.9-5.9
			c0-3.4,2.6-5.9,5.9-5.9H370.9z"/>
		<path class="st1" d="M370.9,303c3.3,0,5.9,2.6,5.9,5.9c0,3.3-2.6,5.9-5.9,5.9h-23.5c-3.3,0-5.9-2.6-5.9-5.9c0-3.3,2.6-5.9,5.9-5.9
			H370.9z"/>
		<path class="st1" d="M370.9,338.4c3.3,0,5.9,2.6,5.9,5.9c0,3.3-2.6,5.9-5.9,5.9h-23.5c-3.3,0-5.9-2.6-5.9-5.9
			c0-3.3,2.6-5.9,5.9-5.9H370.9z"/>
		<path class="st1" d="M306.1,379.7c0,3.3-2.6,5.9-5.9,5.9c-3.4,0-5.9-2.6-5.9-5.9v-5.9V214.7c0-1.8,0.9-3.4,2.1-4.6
			c1.4-1.1,3.2-1.6,4.9-1.2l4.7,0.9v12v151.9v5.9H306.1z"/>
		<path class="st1" d="M294.3,373.8v5.9c0,3.3,2.6,5.9,5.9,5.9h-47.1c3.3,0,5.9-2.6,5.9-5.9v-5.9H294.3z"/>
		<path class="st1" d="M264.9,161.7c3.3,0,5.9,2.6,5.9,5.9c0,3.3-2.6,5.9-5.9,5.9h-23.5c-3.3,0-5.9-2.6-5.9-5.9
			c0-3.3,2.6-5.9,5.9-5.9H264.9z"/>
		<path class="st1" d="M270.7,202.9c0,3.3-2.6,5.9-5.9,5.9h-23.5c-3.3,0-5.9-2.6-5.9-5.9s2.6-5.9,5.9-5.9h23.5
			C268.1,197,270.7,199.6,270.7,202.9z"/>
		<path class="st1" d="M264.9,232.4c3.3,0,5.9,2.6,5.9,5.9s-2.6,5.9-5.9,5.9h-23.5c-3.3,0-5.9-2.6-5.9-5.9s2.6-5.9,5.9-5.9H264.9z"
			/>
		<path class="st1" d="M264.9,267.7c3.3,0,5.9,2.6,5.9,5.9c0,3.4-2.6,5.9-5.9,5.9h-23.5c-3.3,0-5.9-2.6-5.9-5.9
			c0-3.4,2.6-5.9,5.9-5.9H264.9z"/>
		<path class="st1" d="M211.8,273.6c0,3.3-2.6,5.9-5.9,5.9h-23.5c-3.3,0-5.9-2.6-5.9-5.9c0-3.4,2.6-5.9,5.9-5.9h23.5
			C209.3,267.7,211.8,270.3,211.8,273.6z"/>
		<path class="st1" d="M205.9,161.7c3.3,0,5.9,2.6,5.9,5.9c0,3.3-2.6,5.9-5.9,5.9h-23.5c-3.3,0-5.9-2.6-5.9-5.9
			c0-3.3,2.6-5.9,5.9-5.9H205.9z"/>
		<path class="st1" d="M205.9,197c3.3,0,5.9,2.6,5.9,5.9s-2.6,5.9-5.9,5.9h-23.5c-3.3,0-5.9-2.6-5.9-5.9s2.6-5.9,5.9-5.9H205.9z"/>
		<path class="st1" d="M205.9,232.4c3.3,0,5.9,2.6,5.9,5.9s-2.6,5.9-5.9,5.9h-23.5c-3.3,0-5.9-2.6-5.9-5.9s2.6-5.9,5.9-5.9H205.9z"
			/>
		<path class="st1" d="M247.2,320.7c0-3.3-2.7-5.9-5.9-5.9h-35.3c-3.3,0-5.9,2.6-5.9,5.9v53h-11.8v-53c0-9.7,7.9-17.7,17.7-17.7
			h35.3c9.7,0,17.7,7.9,17.7,17.7v53h-11.8L247.2,320.7L247.2,320.7z"/>
		<path class="st1" d="M200.1,373.8h47.1h11.8v5.9c0,3.3-2.6,5.9-5.9,5.9h-58.9c-3.3,0-5.9-2.6-5.9-5.9v-5.9H200.1z"/>
		<path class="st1" d="M161.8,105.1l129.5,19.6c8.6,1.4,14.8,8.7,14.8,17.5v67.6l-4.7-0.9c-1.8-0.4-3.5,0.2-4.9,1.2
			c-1.3,1.2-2.1,2.8-2.1,4.6v-72.4c0-3-2.1-5.5-4.9-5.9l-129.7-19.6c-0.4-0.2-0.7-0.2-1.1-0.2c-1.4,0-2.7,0.5-3.7,1.4
			c-1.4,1.2-2.1,2.7-2.1,4.4v245.3c0,3.3,2.7,5.9,5.9,5.9h29.5v5.9c0,3.3,2.6,5.9,5.9,5.9h-35.3c-9.7,0-17.7-7.9-17.7-17.7V122.5
			c0-5.1,2.3-10.1,6.2-13.4C151.4,105.7,156.5,104.3,161.8,105.1z"/>
	</g>
</g>
</svg>
